<?xml version="1.0" encoding="utf-8"?>
<svg width="20" height="20.001" viewBox="0 0 20 20.001" fill="none" xmlns="http://www.w3.org/2000/svg">
  <g transform="translate(0 0.001)">
    <path d="M7.64589 7.1142C7.35389 7.6202 6.86889 7.6752 6.67389 7.6752C6.47889 7.6752 5.99489 7.6202 5.70189 7.1142C5.40989 6.6082 5.60389 6.1602 5.70189 5.9912C5.79889 5.8232 6.08889 5.4302 6.67389 5.4302C7.25889 5.4302 7.54889 5.8232 7.64589 5.9912C7.74389 6.1602 7.93789 6.6082 7.64589 7.1142M6.67389 4.2242C4.88089 4.2242 3.76089 6.1652 4.65789 7.7172C5.10489 8.4932 5.88989 8.8822 6.67389 8.8822C7.45889 8.8822 8.2429 8.4932 8.6899 7.7172C9.58689 6.1652 8.46689 4.2242 6.67389 4.2242M11.4008 9.394L6.67379 17.581L1.94679 9.394C0.960794 7.685 0.960794 5.644 1.94679 3.936C2.93379 2.227 4.70079 1.206 6.67379 1.206C8.64779 1.206 10.4148 2.227 11.4008 3.936C12.3878 5.644 12.3878 7.685 11.4008 9.394M6.67379 0C1.54379 0 -1.66221 5.554 0.902794 9.997L6.67379 19.994L12.4448 9.997C15.0108 5.554 11.8038 0 6.67379 0" fill="#FFFFFF" fill-rule="evenodd" transform="translate(3 -0.001)" />
  </g>
</svg>